<?xml version="1.0" encoding="UTF-8"?>
<svg xmlns="http://www.w3.org/2000/svg" version="1.1" viewBox="0 0 521.3 100.1">
  <defs>
    <style>
      .cls-1 {
        fill: #fcfaf5;
      }

      .cls-2 {
        fill: #f19429;
      }
    </style>
  </defs>
  <!-- Generator: Adobe Illustrator 28.7.5, SVG Export Plug-In . SVG Version: 1.2.0 Build 176)  -->
  <g>
    <g id="Camada_1">
      <g>
        <g>
          <path class="cls-1" d="M77.9,39.4c0,7.6-2.9,14.5-6.8,21.1-5.7,9.6-12.6,18.3-19.7,26.9-2.8,3.5-5.8,6.8-8.7,10.2-.2.2-.4.5-.6.7-2.2,2.5-4.3,2.4-6.4-.1-4-4.7-8-9.4-11.9-14.2-6.1-7.5-12-15.1-16.9-23.5-2.7-4.6-5.1-9.3-6.2-14.6-2.2-11.5.5-21.8,7.5-31C13.8,7.6,21.5,3.1,30.4,1.1c13-3,24.5.4,34.4,8.9,6.8,5.8,10.9,13.4,12.6,22.2.3,2.5.6,4.7.5,7.2ZM39.1,13.7c-13.4-.3-26.4,10.8-26.4,25.9s12.1,25.6,26.3,25.5c14.2,0,26.1-11.8,26.1-25.7s-13.1-26.1-26-25.7Z"/>
          <path class="cls-1" d="M49,42.6v-11.8c0-1,.2-2.2-1.1-2.6-1.2-.4-2.1.3-2.8,1.2-2.7,3.7-3.4,7.9-3,12.3,0,1.1.9,1.8,1.8,2.4.8.6,1.1,1.3,1.1,2.2,0,3.4,0,6.9,0,10.3s-.6,1.9-1.8,2.2c-2.8.5-5.5.5-8.3,0-1.1-.2-1.7-.7-1.6-1.8,0-3.9,0-7.7-.3-11.6,0-1,.2-1.9,1-2.6,1.6-1.4,2.2-3.3,2.2-5.4v-6.5c0-.7.2-1.6-.9-1.6s-1,.9-1,1.7v5.7c0,.8,0,1.8-1.1,1.8s-1-1-1-1.8v-5.9c0-.7,0-1.6-1-1.6s-.8.9-.8,1.5v5.9c0,.8,0,1.7-1.1,1.8-1.1,0-1.2-.9-1.2-1.8v-5.9c0-.6,0-1.5-.8-1.5-1-.1-1,.8-1,1.5v7.4c0,1.9.7,3.5,2.1,4.8.9.8,1.2,1.9,1.1,3.1,0,2.9-.2,5.8-.3,8.7,0,.5,0,1.1-.3,1.4-.6.4-1-.2-1.4-.5-7.9-5.4-10.6-15.9-6.5-24.6,6-12.6,23.2-15.5,33-5.5,8.6,8.7,7.1,23.3-3,30.2-.4.3-.8.8-1.3.4-.4-.3-.2-.8-.2-1.2-.4-4.1-.4-8.2-.4-12.3h0Z"/>
        </g>
        <g>
          <path class="cls-2" d="M103.1,67.4V23.7h33v8.1h-22.9v35.5h-10.1ZM112.4,51.5v-8.1h21v8.1h-21Z"/>
          <path class="cls-2" d="M157.4,67.9c-3.6,0-6.7-.7-9.5-2.2s-4.9-3.5-6.5-6.1-2.4-5.6-2.4-8.9.8-6.4,2.4-8.9c1.6-2.6,3.8-4.6,6.5-6.1,2.8-1.5,5.9-2.2,9.5-2.2s6.7.7,9.5,2.2,5,3.5,6.5,6.1c1.6,2.6,2.4,5.6,2.4,9s-.8,6.3-2.4,8.9c-1.6,2.6-3.8,4.6-6.5,6.1s-6,2.1-9.5,2.1ZM157.4,59.9c1.6,0,3.1-.4,4.4-1.1,1.3-.7,2.3-1.8,3.1-3.2.7-1.4,1.1-3,1.1-5s-.4-3.6-1.1-5c-.7-1.4-1.8-2.4-3.1-3.2-1.3-.7-2.7-1.1-4.4-1.1s-3.1.4-4.4,1.1c-1.3.7-2.3,1.8-3.1,3.2-.8,1.4-1.2,3-1.2,5s.4,3.6,1.2,5,1.8,2.5,3.1,3.2,2.7,1.1,4.4,1.1Z"/>
          <path class="cls-2" d="M198.2,67.9c-3.6,0-6.7-.7-9.5-2.2s-4.9-3.5-6.5-6.1-2.4-5.6-2.4-8.9.8-6.4,2.4-8.9c1.6-2.6,3.8-4.6,6.5-6.1,2.8-1.5,5.9-2.2,9.5-2.2s6.7.7,9.5,2.2,5,3.5,6.5,6.1c1.6,2.6,2.4,5.6,2.4,9s-.8,6.3-2.4,8.9c-1.6,2.6-3.8,4.6-6.5,6.1s-6,2.1-9.5,2.1ZM198.2,59.9c1.6,0,3.1-.4,4.4-1.1,1.3-.7,2.3-1.8,3.1-3.2.7-1.4,1.1-3,1.1-5s-.4-3.6-1.1-5c-.7-1.4-1.8-2.4-3.1-3.2-1.3-.7-2.7-1.1-4.4-1.1s-3.1.4-4.4,1.1c-1.3.7-2.3,1.8-3.1,3.2-.8,1.4-1.2,3-1.2,5s.4,3.6,1.2,5,1.8,2.5,3.1,3.2,2.8,1.1,4.4,1.1Z"/>
          <path class="cls-2" d="M237.5,67.9c-3.2,0-6-.7-8.5-2.2-2.5-1.4-4.5-3.4-6-6s-2.2-5.6-2.2-9.1.7-6.6,2.2-9.2,3.5-4.6,6-6,5.4-2.1,8.5-2.1,5.3.6,7.4,1.9c2.1,1.2,3.8,3.1,4.9,5.7,1.2,2.5,1.7,5.8,1.7,9.7s-.6,7.1-1.7,9.7-2.7,4.5-4.8,5.7c-2,1.3-4.6,1.9-7.5,1.9ZM239.2,59.9c1.6,0,3-.4,4.3-1.1s2.3-1.8,3.1-3.2c.8-1.4,1.2-3,1.2-5s-.4-3.6-1.2-5c-.8-1.4-1.8-2.4-3.1-3.2-1.3-.7-2.7-1.1-4.3-1.1s-3.1.4-4.4,1.1-2.3,1.8-3.1,3.2c-.8,1.4-1.2,3-1.2,5s.4,3.6,1.2,5c.8,1.4,1.8,2.5,3.1,3.2,1.3.7,2.7,1.1,4.4,1.1ZM248,67.4v-6.9l.2-10-.6-9.9v-19.5h9.7v46.3h-9.3Z"/>
          <path class="cls-1" d="M287.8,67.8c-3.3,0-6.3-.6-9.1-1.7-2.8-1.1-5.2-2.7-7.2-4.6-2-2-3.6-4.3-4.8-7-1.1-2.7-1.7-5.7-1.7-8.9s.6-6.2,1.7-8.9c1.1-2.7,2.7-5.1,4.8-7s4.5-3.5,7.3-4.6,5.8-1.7,9.1-1.7,6.1.5,8.9,1.6,5.1,2.7,7,4.8l-2.9,2.9c-1.8-1.8-3.8-3.1-5.9-4-2.2-.8-4.5-1.2-7-1.2s-5.1.4-7.3,1.3c-2.2.9-4.2,2.2-5.9,3.8-1.7,1.6-3,3.6-3.9,5.7s-1.4,4.6-1.4,7.2.5,5,1.4,7.2,2.2,4.1,3.9,5.7c1.7,1.6,3.6,2.9,5.9,3.8s4.7,1.3,7.3,1.3,4.8-.4,7-1.2c2.2-.8,4.1-2.2,5.9-4l2.9,2.9c-1.9,2.1-4.3,3.7-7,4.8-2.8,1.2-5.8,1.8-9,1.8Z"/>
          <path class="cls-1" d="M320.9,67.7c-2.5,0-4.6-.4-6.4-1.2s-3.2-1.9-4.1-3.4c-1-1.4-1.4-3.1-1.4-5s.4-3.3,1.2-4.6c.8-1.4,2.1-2.5,4-3.4,1.8-.9,4.3-1.3,7.5-1.3h11.3v3.3h-11.2c-3.2,0-5.4.6-6.6,1.7s-1.8,2.5-1.8,4.2.7,3.4,2.2,4.5,3.5,1.7,6.1,1.7,4.6-.6,6.5-1.7c1.8-1.1,3.1-2.8,4-5l1,3.1c-.8,2.2-2.3,3.9-4.3,5.2-2.3,1.3-4.9,1.9-8,1.9ZM332.2,67.4v-7.2l-.2-1.2v-12.1c0-2.8-.8-4.9-2.3-6.4-1.6-1.5-3.9-2.2-7-2.2s-4.1.4-6,1.1-3.5,1.6-4.9,2.8l-2-3.3c1.7-1.4,3.7-2.5,6-3.3s4.8-1.2,7.4-1.2c4.2,0,7.5,1.1,9.8,3.1,2.3,2.1,3.5,5.3,3.5,9.6v20.3h-4.3Z"/>
          <path class="cls-1" d="M348.4,67.4v-32.7h4.2v8.9l-.7-1.6c1-2.4,2.6-4.2,4.8-5.6,2.2-1.4,4.9-2,7.9-2s5.9.8,8.2,2.4c2.2,1.6,3.7,4,4.4,7.2l-1.7-.7c1-2.7,2.7-4.8,5.1-6.5,2.4-1.6,5.4-2.5,8.8-2.5s5,.5,7,1.5,3.5,2.6,4.6,4.6c1.1,2.1,1.7,4.7,1.7,7.9v19h-4.4v-18.6c0-3.5-.8-6.1-2.5-7.8-1.6-1.8-4-2.7-7-2.7s-4.2.5-5.8,1.4c-1.6.9-2.9,2.3-3.8,4.1-.9,1.8-1.3,3.9-1.3,6.4v17.2h-4.4v-18.6c0-3.5-.8-6.1-2.5-7.8-1.7-1.8-4-2.7-7-2.7s-4.1.5-5.8,1.4-2.9,2.3-3.8,4.1c-.9,1.8-1.3,3.9-1.3,6.4v17.2h-4.7q0,.1,0,.1Z"/>
          <path class="cls-1" d="M414.6,79.5v-44.8h4.2v9.9l-.4,6.5.6,6.6v21.8h-4.4ZM431.5,67.7c-2.8,0-5.4-.7-7.7-2-2.3-1.3-4.1-3.2-5.5-5.7s-2-5.5-2-9.1.7-6.6,2-9.1,3.1-4.4,5.4-5.6c2.3-1.3,4.9-1.9,7.7-1.9s5.9.7,8.4,2.1,4.4,3.3,5.8,5.9c1.4,2.5,2.1,5.4,2.1,8.7s-.7,6.2-2.1,8.7-3.4,4.4-5.8,5.9c-2.4,1.4-5.2,2.1-8.3,2.1ZM431.2,63.8c2.3,0,4.4-.5,6.2-1.6,1.8-1.1,3.3-2.6,4.4-4.5s1.6-4.2,1.6-6.7-.5-4.8-1.6-6.7c-1.1-1.9-2.5-3.4-4.4-4.5-1.8-1.1-3.9-1.6-6.2-1.6s-4.4.5-6.3,1.6-3.3,2.6-4.4,4.5-1.6,4.1-1.6,6.7.5,4.8,1.6,6.7c1.1,1.9,2.5,3.4,4.4,4.5,1.9,1,4,1.6,6.3,1.6Z"/>
          <path class="cls-1" d="M470.4,67.7c-2.8,0-5.2-.5-7.3-1.6-2.1-1-3.7-2.6-4.8-4.7-1.1-2.1-1.7-4.7-1.7-7.8v-19h4.4v18.5c0,3.5.9,6.1,2.6,7.9s4.1,2.7,7.3,2.7,4.3-.5,6-1.4c1.7-.9,3-2.3,3.9-4.1.9-1.8,1.3-3.9,1.3-6.4v-17.1h4.4v32.7h-4.2v-9l.7,1.6c-1,2.4-2.7,4.3-4.8,5.6-2.3,1.4-4.9,2.1-7.8,2.1Z"/>
          <path class="cls-1" d="M507.6,67.7c-2.7,0-5.3-.4-7.7-1.2-2.4-.8-4.3-1.7-5.7-2.9l2-3.5c1.3,1,3,1.9,5.1,2.6s4.3,1.1,6.5,1.1,5.4-.5,6.7-1.5c1.4-1,2.1-2.3,2.1-3.9s-.4-2.2-1.2-2.8c-.8-.7-1.8-1.2-3-1.6s-2.6-.7-4.2-.9c-1.5-.2-3.1-.5-4.6-.9-1.5-.3-2.9-.8-4.1-1.5-1.2-.6-2.3-1.5-3-2.6-.8-1.1-1.2-2.6-1.2-4.5s.5-3.4,1.5-4.8,2.5-2.5,4.4-3.3,4.3-1.2,7.1-1.2,4.2.3,6.4.8c2.1.6,3.9,1.3,5.2,2.2l-1.9,3.6c-1.5-1-3-1.7-4.7-2.2-1.7-.4-3.3-.7-5-.7-3,0-5.1.5-6.5,1.5s-2.1,2.3-2.1,3.9.4,2.2,1.2,2.9c.8.7,1.8,1.3,3.1,1.7,1.3.4,2.7.7,4.2,1,1.5.2,3,.6,4.6.9,1.5.4,2.9.8,4.2,1.4s2.3,1.5,3.1,2.6,1.2,2.5,1.2,4.3-.5,3.6-1.6,5-2.6,2.5-4.6,3.2c-2.2.9-4.7,1.3-7.5,1.3Z"/>
        </g>
      </g>
    </g>
  </g>
</svg>