<?xml version="1.0" encoding="UTF-8"?>
<svg xmlns="http://www.w3.org/2000/svg" version="1.1" viewBox="0 0 600 600">
  <defs>
    <style>
      .cls-1 {
        fill: #fcfaf5;
      }

      .cls-2 {
        fill: #f19429;
      }
    </style>
  </defs>
  <!-- Generator: Adobe Illustrator 28.7.5, SVG Export Plug-In . SVG Version: 1.2.0 Build 176)  -->
  <g>
    <g id="Camada_1">
      <g id="Camada_1-2" data-name="Camada_1">
        <g>
          <path class="cls-2" d="M533.7,236c.7,45.6-17.4,87-40.7,126.5-34.2,57.6-75.6,109.7-118.2,161.3-16.8,21-34.8,40.7-52.2,61.2-1.2,1.2-2.4,3-3.6,4.2-13.2,14.9-25.8,14.4-38.3-.7-23.9-28.2-48-56.3-71.4-85.1-36.6-44.9-71.9-90.5-101.4-140.9-16.1-27.6-30.5-55.8-37.1-87.5-13.2-69,3-130.7,44.9-185.8C149.3,45.5,195.4,18.5,248.8,6.5c78-18,146.8,2.4,206.3,53.4,40.7,34.8,65.3,80.4,75.6,133.1,1.8,14.7,3.5,27.9,3,43Z"/>
          <path class="cls-1" d="M300.9,81.9c-80.2-1.9-158.2,64.8-158.2,155.3s72.6,153.5,157.7,152.9c85.1,0,156.5-70.7,156.5-154.1s-78.5-156.5-156-154.1Z"/>
          <path class="cls-2" d="M360.4,255.2v-70.7c0-5.9,1.2-13.2-6.6-15.6-7.1-2.4-12.6,1.9-16.8,7.1-16.3,22.2-20.5,47.3-18,73.8.7,6.6,5.4,10.8,10.8,14.4,4.8,3.6,6.6,7.8,6.6,13.2-.7,20.4-.7,41.4-.7,61.7s-3.6,11.4-10.8,13.2c-16.8,3-33,3-49.8,0-6.6-1.2-10.2-4.2-9.6-10.8,0-23.4-.7-46.1-1.9-69.5-.7-5.9,1.2-11.4,5.9-15.6,9.6-8.5,13.2-19.8,13.2-32.4v-39c0-4.2,1.2-9.6-5.4-9.6s-5.9,5.4-5.9,10.2v34.2c0,4.8,0,10.8-6.6,10.8s-5.9-5.9-5.9-10.8v-35.4c0-4.2,0-9.6-5.9-9.6s-4.8,5.4-4.8,9v35.4c0,4.8-.7,10.2-6.6,10.8-6.6,0-7.1-5.4-7.1-10.8v-35.4c0-3.6.7-9-4.8-9-5.9-.7-5.9,4.8-5.9,9v44.4c.7,11.4,4.2,21,12.6,28.8,5.4,4.8,7.1,11.4,6.6,18.6-.7,17.4-1.2,34.8-1.9,52.2,0,3,.7,6.6-1.9,8.5-3.6,2.4-5.9-1.2-8.5-3-47.3-32.4-63.6-95.3-39-147.5,36-75.6,139-92.9,197.9-33,51.5,52.2,42.6,139.7-18,181.1-2.4,1.9-4.8,4.8-7.8,2.4-2.4-1.9-1.2-4.8-1.2-7.1-2.2-24.9-2.2-49.4-2.2-74h0Z"/>
        </g>
      </g>
    </g>
  </g>
</svg>