<?xml version="1.0" encoding="utf-8"?>
<!-- Generator: Adobe Illustrator 28.2.0, SVG Export Plug-In . SVG Version: 6.00 Build 0)  -->
<svg version="1.1" id="Camada_1" xmlns="http://www.w3.org/2000/svg" xmlns:xlink="http://www.w3.org/1999/xlink" x="0px" y="0px"
	 viewBox="0 0 600 600" style="enable-background:new 0 0 600 600;" xml:space="preserve">
<style type="text/css">
	.st0{fill:#035C36;}
</style>
<g>
	<g>
		<path class="st0" d="M533.7,236c0.7,45.6-17.4,87-40.7,126.5c-34.2,57.6-75.6,109.7-118.2,161.3c-16.8,21-34.8,40.7-52.2,61.2
			c-1.2,1.2-2.4,3-3.6,4.2c-13.2,14.9-25.8,14.4-38.3-0.7c-23.9-28.2-48-56.3-71.4-85.1c-36.6-44.9-71.9-90.5-101.4-140.9
			c-16.1-27.6-30.5-55.8-37.1-87.5c-13.2-69,3-130.7,44.9-185.8c33.6-43.7,79.7-70.7,133.1-82.7c78-18,146.8,2.4,206.3,53.4
			c40.7,34.8,65.3,80.4,75.6,133.1C532.5,207.7,534.2,220.9,533.7,236z M300.9,81.9c-80.2-1.9-158.2,64.8-158.2,155.3
			c0,83.4,72.6,153.5,157.7,152.9c85.1,0,156.5-70.7,156.5-154.1C456.9,146,378.4,79.5,300.9,81.9z"/>
		<path class="st0" d="M360.4,255.2c0-23.4,0-47.3,0-70.7c0-5.9,1.2-13.2-6.6-15.6c-7.1-2.4-12.6,1.9-16.8,7.1
			c-16.3,22.2-20.5,47.3-18,73.8c0.7,6.6,5.4,10.8,10.8,14.4c4.8,3.6,6.6,7.8,6.6,13.2c-0.7,20.4-0.7,41.4-0.7,61.7
			c0,8.5-3.6,11.4-10.8,13.2c-16.8,3-33,3-49.8,0c-6.6-1.2-10.2-4.2-9.6-10.8c0-23.4-0.7-46.1-1.9-69.5c-0.7-5.9,1.2-11.4,5.9-15.6
			c9.6-8.5,13.2-19.8,13.2-32.4c0-13.2,0-26.4,0-39c0-4.2,1.2-9.6-5.4-9.6c-5.4,0-5.9,5.4-5.9,10.2c0,11.4,0,22.7,0,34.2
			c0,4.8,0,10.8-6.6,10.8c-5.9,0-5.9-5.9-5.9-10.8c0-12,0-23.4,0-35.4c0-4.2,0-9.6-5.9-9.6c-5.4,0-4.8,5.4-4.8,9c0,12,0,23.4,0,35.4
			c0,4.8-0.7,10.2-6.6,10.8c-6.6,0-7.1-5.4-7.1-10.8c0-12,0-23.4,0-35.4c0-3.6,0.7-9-4.8-9c-5.9-0.7-5.9,4.8-5.9,9
			c0,14.9,0,29.3,0,44.4c0.7,11.4,4.2,21,12.6,28.8c5.4,4.8,7.1,11.4,6.6,18.6c-0.7,17.4-1.2,34.8-1.9,52.2c0,3,0.7,6.6-1.9,8.5
			c-3.6,2.4-5.9-1.2-8.5-3c-47.3-32.4-63.6-95.3-39-147.5c36-75.6,139-92.9,197.9-33c51.5,52.2,42.6,139.7-18,181.1
			c-2.4,1.9-4.8,4.8-7.8,2.4c-2.4-1.9-1.2-4.8-1.2-7.1C360.4,304.3,360.4,279.8,360.4,255.2L360.4,255.2z"/>
	</g>
</g>
</svg>
