<?xml version="1.0" encoding="utf-8"?>
<!-- Generator: Adobe Illustrator 28.2.0, SVG Export Plug-In . SVG Version: 6.00 Build 0)  -->
<svg version="1.1" id="Camada_1" xmlns="http://www.w3.org/2000/svg" xmlns:xlink="http://www.w3.org/1999/xlink" x="0px" y="0px"
	 viewBox="0 0 600 600" style="enable-background:new 0 0 600 600;" xml:space="preserve">
<style type="text/css">
	.st0{fill:#FCFAF5;}
	.st1{fill:#035C36;}
</style>
<rect y="0" class="st0" width="600" height="600"/>
<g>
	<g>
		<path class="st1" d="M476.8,251.6c0.5,34.5-13.2,65.8-30.8,95.7c-25.9,43.6-57.2,83-89.4,122c-12.7,15.9-26.3,30.8-39.5,46.3
			c-0.9,0.9-1.8,2.3-2.7,3.2c-10,11.3-19.5,10.9-29-0.5c-18.1-21.3-36.3-42.6-54-64.4c-27.7-34-54.4-68.5-76.7-106.6
			c-12.2-20.9-23.1-42.2-28.1-66.2c-10-52.2,2.3-98.9,34-140.6c25.4-33.1,60.3-53.5,100.7-62.6c59-13.6,111.1,1.8,156.1,40.4
			c30.8,26.3,49.4,60.8,57.2,100.7C475.9,230.2,477.2,240.2,476.8,251.6z M300.7,135C240,133.6,181,184,181,252.5
			c0,63.1,54.9,116.1,119.3,115.7c64.4,0,118.4-53.5,118.4-116.6C418.7,183.5,359.3,133.2,300.7,135z"/>
		<path class="st1" d="M345.7,266.1c0-17.7,0-35.8,0-53.5c0-4.5,0.9-10-5-11.8c-5.4-1.8-9.5,1.4-12.7,5.4
			C315.7,223,312.5,242,314.4,262c0.5,5,4.1,8.2,8.2,10.9c3.6,2.7,5,5.9,5,10c-0.5,15.4-0.5,31.3-0.5,46.7c0,6.4-2.7,8.6-8.2,10
			c-12.7,2.3-25,2.3-37.7,0c-5-0.9-7.7-3.2-7.3-8.2c0-17.7-0.5-34.9-1.4-52.6c-0.5-4.5,0.9-8.6,4.5-11.8c7.3-6.4,10-15,10-24.5
			c0-10,0-20,0-29.5c0-3.2,0.9-7.3-4.1-7.3c-4.1,0-4.5,4.1-4.5,7.7c0,8.6,0,17.2,0,25.9c0,3.6,0,8.2-5,8.2c-4.5,0-4.5-4.5-4.5-8.2
			c0-9.1,0-17.7,0-26.8c0-3.2,0-7.3-4.5-7.3c-4.1,0-3.6,4.1-3.6,6.8c0,9.1,0,17.7,0,26.8c0,3.6-0.5,7.7-5,8.2c-5,0-5.4-4.1-5.4-8.2
			c0-9.1,0-17.7,0-26.8c0-2.7,0.5-6.8-3.6-6.8c-4.5-0.5-4.5,3.6-4.5,6.8c0,11.3,0,22.2,0,33.6c0.5,8.6,3.2,15.9,9.5,21.8
			c4.1,3.6,5.4,8.6,5,14.1c-0.5,13.2-0.9,26.3-1.4,39.5c0,2.3,0.5,5-1.4,6.4c-2.7,1.8-4.5-0.9-6.4-2.3
			c-35.8-24.5-48.1-72.1-29.5-111.6c27.2-57.2,105.2-70.3,149.7-25c39,39.5,32.2,105.7-13.6,137c-1.8,1.4-3.6,3.6-5.9,1.8
			c-1.8-1.4-0.9-3.6-0.9-5.4C345.7,303.3,345.7,284.7,345.7,266.1L345.7,266.1z"/>
	</g>
</g>
</svg>
