<?xml version="1.0" encoding="utf-8"?>
<!-- Generator: Adobe Illustrator 28.2.0, SVG Export Plug-In . SVG Version: 6.00 Build 0)  -->
<svg version="1.1" id="Camada_1" xmlns="http://www.w3.org/2000/svg" xmlns:xlink="http://www.w3.org/1999/xlink" x="0px" y="0px"
	 viewBox="0 0 600 600" style="enable-background:new 0 0 600 600;" xml:space="preserve">
<style type="text/css">
	.st0{fill:#FCFAF5;}
	.st1{fill:#035C36;}
	.st2{fill:#F19429;}
</style>
<rect y="0" class="st0" width="600" height="600"/>
<g>
	<g>
		<path class="st1" d="M114.4,289.1c0.1,7.6-2.9,14.5-6.8,21.1c-5.7,9.6-12.6,18.3-19.7,26.9c-2.8,3.5-5.8,6.8-8.7,10.2
			c-0.2,0.2-0.4,0.5-0.6,0.7c-2.2,2.5-4.3,2.4-6.4-0.1c-4-4.7-8-9.4-11.9-14.2c-6.1-7.5-12-15.1-16.9-23.5
			c-2.7-4.6-5.1-9.3-6.2-14.6c-2.2-11.5,0.5-21.8,7.5-31c5.6-7.3,13.3-11.8,22.2-13.8c13-3,24.5,0.4,34.4,8.9
			c6.8,5.8,10.9,13.4,12.6,22.2C114.2,284.4,114.5,286.6,114.4,289.1z M75.6,263.4c-13.4-0.3-26.4,10.8-26.4,25.9
			c0,13.9,12.1,25.6,26.3,25.5c14.2,0,26.1-11.8,26.1-25.7C101.6,274.1,88.5,263,75.6,263.4z"/>
		<path class="st1" d="M85.5,292.3c0-3.9,0-7.9,0-11.8c0-1,0.2-2.2-1.1-2.6c-1.2-0.4-2.1,0.3-2.8,1.2c-2.7,3.7-3.4,7.9-3,12.3
			c0.1,1.1,0.9,1.8,1.8,2.4c0.8,0.6,1.1,1.3,1.1,2.2c-0.1,3.4-0.1,6.9-0.1,10.3c0,1.4-0.6,1.9-1.8,2.2c-2.8,0.5-5.5,0.5-8.3,0
			c-1.1-0.2-1.7-0.7-1.6-1.8c0-3.9-0.1-7.7-0.3-11.6c-0.1-1,0.2-1.9,1-2.6c1.6-1.4,2.2-3.3,2.2-5.4c0-2.2,0-4.4,0-6.5
			c0-0.7,0.2-1.6-0.9-1.6c-0.9,0-1,0.9-1,1.7c0,1.9,0,3.8,0,5.7c0,0.8,0,1.8-1.1,1.8c-1,0-1-1-1-1.8c0-2,0-3.9,0-5.9
			c0-0.7,0-1.6-1-1.6c-0.9,0-0.8,0.9-0.8,1.5c0,2,0,3.9,0,5.9c0,0.8-0.1,1.7-1.1,1.8c-1.1,0-1.2-0.9-1.2-1.8c0-2,0-3.9,0-5.9
			c0-0.6,0.1-1.5-0.8-1.5c-1-0.1-1,0.8-1,1.5c0,2.5,0,4.9,0,7.4c0.1,1.9,0.7,3.5,2.1,4.8c0.9,0.8,1.2,1.9,1.1,3.1
			c-0.1,2.9-0.2,5.8-0.3,8.7c0,0.5,0.1,1.1-0.3,1.4c-0.6,0.4-1-0.2-1.4-0.5c-7.9-5.4-10.6-15.9-6.5-24.6c6-12.6,23.2-15.5,33-5.5
			c8.6,8.7,7.1,23.3-3,30.2c-0.4,0.3-0.8,0.8-1.3,0.4c-0.4-0.3-0.2-0.8-0.2-1.2C85.5,300.5,85.5,296.4,85.5,292.3L85.5,292.3z"/>
	</g>
</g>
<g>
	<path class="st2" d="M139.6,317.1v-43.7h33v8.1h-22.9V317h-10.1V317.1z M148.9,301.2v-8.1h21v8.1H148.9z"/>
	<path class="st2" d="M193.9,317.6c-3.6,0-6.7-0.7-9.5-2.2s-4.9-3.5-6.5-6.1s-2.4-5.6-2.4-8.9c0-3.4,0.8-6.4,2.4-8.9
		c1.6-2.6,3.8-4.6,6.5-6.1c2.8-1.5,5.9-2.2,9.5-2.2c3.5,0,6.7,0.7,9.5,2.2s5,3.5,6.5,6.1c1.6,2.6,2.4,5.6,2.4,9
		c0,3.3-0.8,6.3-2.4,8.9c-1.6,2.6-3.8,4.6-6.5,6.1S197.4,317.6,193.9,317.6z M193.9,309.6c1.6,0,3.1-0.4,4.4-1.1
		c1.3-0.7,2.3-1.8,3.1-3.2c0.7-1.4,1.1-3,1.1-5s-0.4-3.6-1.1-5c-0.7-1.4-1.8-2.4-3.1-3.2c-1.3-0.7-2.7-1.1-4.4-1.1
		c-1.6,0-3.1,0.4-4.4,1.1c-1.3,0.7-2.3,1.8-3.1,3.2c-0.8,1.4-1.2,3-1.2,5c0,1.9,0.4,3.6,1.2,5s1.8,2.5,3.1,3.2
		S192.2,309.6,193.9,309.6z"/>
	<path class="st2" d="M234.7,317.6c-3.6,0-6.7-0.7-9.5-2.2s-4.9-3.5-6.5-6.1s-2.4-5.6-2.4-8.9c0-3.4,0.8-6.4,2.4-8.9
		c1.6-2.6,3.8-4.6,6.5-6.1c2.8-1.5,5.9-2.2,9.5-2.2c3.5,0,6.7,0.7,9.5,2.2s5,3.5,6.5,6.1c1.6,2.6,2.4,5.6,2.4,9
		c0,3.3-0.8,6.3-2.4,8.9c-1.6,2.6-3.8,4.6-6.5,6.1S238.2,317.6,234.7,317.6z M234.7,309.6c1.6,0,3.1-0.4,4.4-1.1
		c1.3-0.7,2.3-1.8,3.1-3.2c0.7-1.4,1.1-3,1.1-5s-0.4-3.6-1.1-5c-0.7-1.4-1.8-2.4-3.1-3.2c-1.3-0.7-2.7-1.1-4.4-1.1
		c-1.6,0-3.1,0.4-4.4,1.1c-1.3,0.7-2.3,1.8-3.1,3.2c-0.8,1.4-1.2,3-1.2,5c0,1.9,0.4,3.6,1.2,5s1.8,2.5,3.1,3.2
		S233.1,309.6,234.7,309.6z"/>
	<path class="st2" d="M274,317.6c-3.2,0-6-0.7-8.5-2.2c-2.5-1.4-4.5-3.4-6-6s-2.2-5.6-2.2-9.1s0.7-6.6,2.2-9.2s3.5-4.6,6-6
		s5.4-2.1,8.5-2.1c2.8,0,5.3,0.6,7.4,1.9c2.1,1.2,3.8,3.1,4.9,5.7c1.2,2.5,1.7,5.8,1.7,9.7c0,3.9-0.6,7.1-1.7,9.7s-2.7,4.5-4.8,5.7
		C279.5,317,276.9,317.6,274,317.6z M275.7,309.6c1.6,0,3-0.4,4.3-1.1s2.3-1.8,3.1-3.2c0.8-1.4,1.2-3,1.2-5s-0.4-3.6-1.2-5
		c-0.8-1.4-1.8-2.4-3.1-3.2c-1.3-0.7-2.7-1.1-4.3-1.1c-1.6,0-3.1,0.4-4.4,1.1s-2.3,1.8-3.1,3.2c-0.8,1.4-1.2,3-1.2,5
		c0,1.9,0.4,3.6,1.2,5c0.8,1.4,1.8,2.5,3.1,3.2C272.6,309.2,274,309.6,275.7,309.6z M284.5,317.1v-6.9l0.2-10l-0.6-9.9v-19.5h9.7
		v46.3H284.5z"/>
	<path class="st1" d="M324.3,317.5c-3.3,0-6.3-0.6-9.1-1.7c-2.8-1.1-5.2-2.7-7.2-4.6c-2-2-3.6-4.3-4.8-7c-1.1-2.7-1.7-5.7-1.7-8.9
		c0-3.2,0.6-6.2,1.7-8.9c1.1-2.7,2.7-5.1,4.8-7s4.5-3.5,7.3-4.6s5.8-1.7,9.1-1.7c3.2,0,6.1,0.5,8.9,1.6s5.1,2.7,7,4.8l-2.9,2.9
		c-1.8-1.8-3.8-3.1-5.9-4c-2.2-0.8-4.5-1.2-7-1.2c-2.6,0-5.1,0.4-7.3,1.3c-2.2,0.9-4.2,2.2-5.9,3.8c-1.7,1.6-3,3.6-3.9,5.7
		s-1.4,4.6-1.4,7.2s0.5,5,1.4,7.2s2.2,4.1,3.9,5.7c1.7,1.6,3.6,2.9,5.9,3.8s4.7,1.3,7.3,1.3c2.5,0,4.8-0.4,7-1.2
		c2.2-0.8,4.1-2.2,5.9-4l2.9,2.9c-1.9,2.1-4.3,3.7-7,4.8C330.5,316.9,327.5,317.5,324.3,317.5z"/>
	<path class="st1" d="M357.4,317.4c-2.5,0-4.6-0.4-6.4-1.2s-3.2-1.9-4.1-3.4c-1-1.4-1.4-3.1-1.4-5c0-1.7,0.4-3.3,1.2-4.6
		c0.8-1.4,2.1-2.5,4-3.4c1.8-0.9,4.3-1.3,7.5-1.3h11.3v3.3h-11.2c-3.2,0-5.4,0.6-6.6,1.7s-1.8,2.5-1.8,4.2c0,1.9,0.7,3.4,2.2,4.5
		s3.5,1.7,6.1,1.7c2.5,0,4.6-0.6,6.5-1.7c1.8-1.1,3.1-2.8,4-5l1,3.1c-0.8,2.2-2.3,3.9-4.3,5.2C363.1,316.8,360.5,317.4,357.4,317.4z
		 M368.7,317.1v-7.2l-0.2-1.2v-12.1c0-2.8-0.8-4.9-2.3-6.4c-1.6-1.5-3.9-2.2-7-2.2c-2.1,0-4.1,0.4-6,1.1s-3.5,1.6-4.9,2.8l-2-3.3
		c1.7-1.4,3.7-2.5,6-3.3s4.8-1.2,7.4-1.2c4.2,0,7.5,1.1,9.8,3.1c2.3,2.1,3.5,5.3,3.5,9.6v20.3L368.7,317.1L368.7,317.1z"/>
	<path class="st1" d="M384.9,317.1v-32.7h4.2v8.9l-0.7-1.6c1-2.4,2.6-4.2,4.8-5.6c2.2-1.4,4.9-2,7.9-2c3.2,0,5.9,0.8,8.2,2.4
		c2.2,1.6,3.7,4,4.4,7.2L412,293c1-2.7,2.7-4.8,5.1-6.5c2.4-1.6,5.4-2.5,8.8-2.5c2.7,0,5,0.5,7,1.5s3.5,2.6,4.6,4.6
		c1.1,2.1,1.7,4.7,1.7,7.9v19h-4.4v-18.6c0-3.5-0.8-6.1-2.5-7.8c-1.6-1.8-4-2.7-7-2.7c-2.2,0-4.2,0.5-5.8,1.4
		c-1.6,0.9-2.9,2.3-3.8,4.1c-0.9,1.8-1.3,3.9-1.3,6.4V317H410v-18.6c0-3.5-0.8-6.1-2.5-7.8c-1.7-1.8-4-2.7-7-2.7
		c-2.2,0-4.1,0.5-5.8,1.4s-2.9,2.3-3.8,4.1c-0.9,1.8-1.3,3.9-1.3,6.4V317h-4.7V317.1z"/>
	<path class="st1" d="M451.1,329.2v-44.8h4.2v9.9l-0.4,6.5l0.6,6.6v21.8H451.1z M468,317.4c-2.8,0-5.4-0.7-7.7-2
		c-2.3-1.3-4.1-3.2-5.5-5.7s-2-5.5-2-9.1s0.7-6.6,2-9.1s3.1-4.4,5.4-5.6c2.3-1.3,4.9-1.9,7.7-1.9c3.1,0,5.9,0.7,8.4,2.1
		s4.4,3.3,5.8,5.9c1.4,2.5,2.1,5.4,2.1,8.7c0,3.3-0.7,6.2-2.1,8.7s-3.4,4.4-5.8,5.9C473.9,316.7,471.1,317.4,468,317.4z
		 M467.7,313.5c2.3,0,4.4-0.5,6.2-1.6c1.8-1.1,3.3-2.6,4.4-4.5s1.6-4.2,1.6-6.7s-0.5-4.8-1.6-6.7c-1.1-1.9-2.5-3.4-4.4-4.5
		c-1.8-1.1-3.9-1.6-6.2-1.6s-4.4,0.5-6.3,1.6s-3.3,2.6-4.4,4.5s-1.6,4.1-1.6,6.7c0,2.5,0.5,4.8,1.6,6.7c1.1,1.9,2.5,3.4,4.4,4.5
		C463.3,312.9,465.4,313.5,467.7,313.5z"/>
	<path class="st1" d="M506.9,317.4c-2.8,0-5.2-0.5-7.3-1.6c-2.1-1-3.7-2.6-4.8-4.7c-1.1-2.1-1.7-4.7-1.7-7.8v-19h4.4v18.5
		c0,3.5,0.9,6.1,2.6,7.9s4.1,2.7,7.3,2.7c2.3,0,4.3-0.5,6-1.4c1.7-0.9,3-2.3,3.9-4.1c0.9-1.8,1.3-3.9,1.3-6.4v-17.1h4.4v32.7h-4.2
		v-9l0.7,1.6c-1,2.4-2.7,4.3-4.8,5.6C512.4,316.7,509.8,317.4,506.9,317.4z"/>
	<path class="st1" d="M544.1,317.4c-2.7,0-5.3-0.4-7.7-1.2c-2.4-0.8-4.3-1.7-5.7-2.9l2-3.5c1.3,1,3,1.9,5.1,2.6s4.3,1.1,6.5,1.1
		c3.1,0,5.4-0.5,6.7-1.5c1.4-1,2.1-2.3,2.1-3.9c0-1.2-0.4-2.2-1.2-2.8c-0.8-0.7-1.8-1.2-3-1.6s-2.6-0.7-4.2-0.9
		c-1.5-0.2-3.1-0.5-4.6-0.9c-1.5-0.3-2.9-0.8-4.1-1.5c-1.2-0.6-2.3-1.5-3-2.6c-0.8-1.1-1.2-2.6-1.2-4.5c0-1.8,0.5-3.4,1.5-4.8
		s2.5-2.5,4.4-3.3s4.3-1.2,7.1-1.2c2.1,0,4.2,0.3,6.4,0.8c2.1,0.6,3.9,1.3,5.2,2.2l-1.9,3.6c-1.5-1-3-1.7-4.7-2.2
		c-1.7-0.4-3.3-0.7-5-0.7c-3,0-5.1,0.5-6.5,1.5s-2.1,2.3-2.1,3.9c0,1.2,0.4,2.2,1.2,2.9c0.8,0.7,1.8,1.3,3.1,1.7
		c1.3,0.4,2.7,0.7,4.2,1c1.5,0.2,3,0.6,4.6,0.9c1.5,0.4,2.9,0.8,4.2,1.4s2.3,1.5,3.1,2.6s1.2,2.5,1.2,4.3c0,1.9-0.5,3.6-1.6,5
		s-2.6,2.5-4.6,3.2C549.4,317,546.9,317.4,544.1,317.4z"/>
</g>
</svg>
