<?xml version="1.0" encoding="utf-8"?>
<!-- Generator: Adobe Illustrator 28.2.0, SVG Export Plug-In . SVG Version: 6.00 Build 0)  -->
<svg version="1.1" id="Camada_1" xmlns="http://www.w3.org/2000/svg" xmlns:xlink="http://www.w3.org/1999/xlink" x="0px" y="0px"
	 viewBox="0 0 600 600" style="enable-background:new 0 0 600 600;" xml:space="preserve">
<style type="text/css">
	.st0{fill:#FCFAF5;}
	.st1{fill:#035C36;}
	.st2{fill:#F19429;}
</style>
<rect class="st0" width="600" height="600"/>
<g>
	<g>
		<path class="st1" d="M419.3,201c0.3,22.8-8.6,43.6-20.3,63.4c-17.1,28.8-37.9,55-59.1,80.8c-8.5,10.4-17.4,20.5-26.1,30.7
			c-0.6,0.7-1.3,1.5-1.9,2.2c-6.7,7.4-12.8,7.3-19.3-0.4c-12-14.1-24-28.1-35.7-42.5c-18.3-22.5-36.1-45.4-50.8-70.4
			c-8.1-13.7-15.4-27.8-18.5-43.7c-6.6-34.4,1.4-65.4,22.5-92.9c16.9-22,39.8-35.4,66.6-41.5c38.9-8.9,73.4,1.2,103.3,26.7
			c20.5,17.5,32.8,40.2,37.7,66.7C418.8,186.8,419.5,193.5,419.3,201z M302.8,123.9c-40.3-1-79.3,32.3-79.1,77.6
			c0.1,41.7,36.2,76.7,78.8,76.6c42.5-0.1,78.3-35.3,78.3-77.2C380.8,155.8,341.6,122.7,302.8,123.9z"/>
		<path class="st1" d="M332.5,210.6c0-11.8,0.1-23.6,0-35.4c0-3,0.5-6.7-3.4-7.9c-3.6-1.1-6.4,0.9-8.4,3.7c-8,11-10.1,23.6-9.1,36.8
			c0.3,3.3,2.8,5.5,5.4,7.3c2.4,1.7,3.4,3.8,3.3,6.7c-0.2,10.3-0.3,20.6-0.2,30.9c0,4.1-1.7,5.8-5.5,6.6c-8.3,1.6-16.6,1.6-24.9,0.1
			c-3.3-0.6-5-2.1-4.9-5.5c0.1-11.6-0.2-23.2-1-34.8c-0.2-3.1,0.7-5.8,3.1-7.9c4.9-4.3,6.7-9.8,6.6-16.2c-0.1-6.5,0.1-13.1,0-19.6
			c0-2,0.5-4.9-2.6-4.8c-2.6,0.1-2.9,2.8-2.9,5c-0.1,5.7,0,11.5-0.1,17.2c0,2.5,0.1,5.5-3.4,5.4c-3-0.1-3-3-3-5.3
			c-0.1-5.9,0-11.8-0.1-17.7c0-2.2-0.1-4.8-3-4.7c-2.7,0.1-2.4,2.7-2.4,4.6c-0.1,5.9,0,11.8-0.1,17.7c0,2.3-0.3,5.2-3.2,5.3
			c-3.2,0.1-3.6-2.8-3.7-5.4c-0.1-5.9-0.1-11.8-0.1-17.7c0-1.9,0.2-4.5-2.4-4.6c-3-0.2-3.1,2.5-3.1,4.6c-0.1,7.4-0.1,14.7,0.1,22.1
			c0.2,5.6,2,10.6,6.3,14.4c2.8,2.5,3.6,5.7,3.4,9.3c-0.4,8.7-0.6,17.3-1,26c-0.1,1.4,0.4,3.2-1,4.1c-1.8,1.1-3.1-0.6-4.3-1.4
			c-23.6-16.1-31.9-47.8-19.5-73.7c18.1-37.9,69.7-46.5,99.1-16.5c25.7,26.2,21.4,69.8-9.1,90.5c-1.1,0.8-2.3,2.3-3.9,1.3
			c-1.3-0.8-0.7-2.4-0.7-3.7C332.6,235.2,332.6,222.9,332.5,210.6C332.5,210.6,332.5,210.6,332.5,210.6z"/>
	</g>
</g>
<g>
	<path class="st2" d="M65.1,483.3v-49.1h37.1v9.1H76.5v39.9H65.1z M75.6,465.5v-9.1h23.6v9.1H75.6z"/>
	<path class="st2" d="M126.1,483.9c-4,0-7.6-0.8-10.7-2.5c-3.1-1.7-5.6-4-7.4-6.9c-1.8-2.9-2.7-6.2-2.7-10c0-3.8,0.9-7.1,2.7-10.1
		c1.8-2.9,4.3-5.2,7.4-6.9c3.1-1.7,6.7-2.5,10.7-2.5c4,0,7.5,0.8,10.7,2.5c3.1,1.7,5.6,3.9,7.4,6.8c1.8,2.9,2.7,6.3,2.7,10.1
		c0,3.7-0.9,7.1-2.7,10c-1.8,2.9-4.2,5.2-7.4,6.9C133.6,483.1,130.1,483.9,126.1,483.9z M126.1,474.9c1.8,0,3.5-0.4,4.9-1.3
		c1.4-0.8,2.6-2,3.4-3.6c0.8-1.6,1.3-3.4,1.3-5.6c0-2.2-0.4-4.1-1.3-5.6c-0.8-1.5-2-2.7-3.4-3.6c-1.4-0.8-3.1-1.3-4.9-1.3
		c-1.8,0-3.5,0.4-4.9,1.3c-1.4,0.8-2.6,2-3.5,3.6c-0.9,1.5-1.3,3.4-1.3,5.6c0,2.2,0.4,4,1.3,5.6c0.9,1.6,2,2.8,3.5,3.6
		C122.6,474.5,124.3,474.9,126.1,474.9z"/>
	<path class="st2" d="M172,483.9c-4,0-7.6-0.8-10.7-2.5c-3.1-1.7-5.6-4-7.4-6.9c-1.8-2.9-2.7-6.2-2.7-10c0-3.8,0.9-7.1,2.7-10.1
		c1.8-2.9,4.3-5.2,7.4-6.9c3.1-1.7,6.7-2.5,10.7-2.5c4,0,7.5,0.8,10.7,2.5c3.1,1.7,5.6,3.9,7.4,6.8c1.8,2.9,2.7,6.3,2.7,10.1
		c0,3.7-0.9,7.1-2.7,10c-1.8,2.9-4.2,5.2-7.4,6.9C179.5,483.1,176,483.9,172,483.9z M172,474.9c1.8,0,3.5-0.4,4.9-1.3
		c1.4-0.8,2.6-2,3.4-3.6c0.8-1.6,1.3-3.4,1.3-5.6c0-2.2-0.4-4.1-1.3-5.6c-0.8-1.5-2-2.7-3.4-3.6c-1.4-0.8-3.1-1.3-4.9-1.3
		c-1.8,0-3.5,0.4-4.9,1.3c-1.4,0.8-2.6,2-3.5,3.6c-0.9,1.5-1.3,3.4-1.3,5.6c0,2.2,0.4,4,1.3,5.6c0.9,1.6,2,2.8,3.5,3.6
		C168.5,474.5,170.2,474.9,172,474.9z"/>
	<path class="st2" d="M216.1,483.9c-3.6,0-6.8-0.8-9.6-2.4c-2.9-1.6-5.1-3.9-6.8-6.8c-1.7-2.9-2.5-6.3-2.5-10.2
		c0-4,0.8-7.4,2.5-10.3c1.7-2.9,3.9-5.1,6.8-6.7c2.8-1.6,6-2.4,9.6-2.4c3.2,0,6,0.7,8.3,2.1c2.4,1.4,4.2,3.5,5.5,6.4
		c1.3,2.9,2,6.5,2,10.9c0,4.4-0.6,8-1.9,10.9c-1.3,2.9-3.1,5-5.4,6.4C222.3,483.2,219.5,483.9,216.1,483.9z M218,474.9
		c1.8,0,3.4-0.4,4.8-1.3c1.4-0.8,2.6-2,3.5-3.6c0.9-1.6,1.3-3.4,1.3-5.6c0-2.2-0.4-4.1-1.3-5.6c-0.9-1.5-2-2.7-3.5-3.6
		c-1.4-0.8-3.1-1.3-4.8-1.3c-1.8,0-3.5,0.4-4.9,1.3c-1.4,0.8-2.6,2-3.5,3.6c-0.9,1.5-1.3,3.4-1.3,5.6c0,2.2,0.4,4,1.3,5.6
		c0.9,1.6,2,2.8,3.5,3.6C214.6,474.5,216.2,474.9,218,474.9z M227.9,483.3v-7.7l0.2-11.2l-0.7-11.1v-21.9h10.9v52H227.9z"/>
	<path class="st1" d="M272.7,483.8c-3.7,0-7.1-0.6-10.2-1.9c-3.1-1.2-5.8-3-8.1-5.2c-2.3-2.2-4.1-4.9-5.4-7.9c-1.3-3-1.9-6.4-1.9-10
		c0-3.6,0.6-6.9,1.9-10c1.3-3,3.1-5.7,5.4-7.9c2.3-2.2,5-4,8.2-5.2c3.1-1.2,6.5-1.9,10.2-1.9c3.6,0,6.9,0.6,10,1.8
		c3.1,1.2,5.8,3,7.9,5.4l-3.3,3.3c-2-2.1-4.2-3.5-6.7-4.5c-2.4-0.9-5-1.4-7.8-1.4c-2.9,0-5.7,0.5-8.2,1.5c-2.5,1-4.7,2.4-6.6,4.3
		c-1.9,1.8-3.3,4-4.4,6.4c-1.1,2.5-1.6,5.2-1.6,8.1c0,2.9,0.5,5.6,1.6,8.1c1.1,2.5,2.5,4.6,4.4,6.4c1.9,1.8,4.1,3.3,6.6,4.3
		c2.5,1,5.3,1.5,8.2,1.5c2.8,0,5.4-0.5,7.8-1.4c2.4-0.9,4.6-2.4,6.7-4.5l3.3,3.3c-2.2,2.4-4.8,4.2-7.9,5.4
		C279.7,483.1,276.3,483.8,272.7,483.8z"/>
	<path class="st1" d="M309.8,483.7c-2.8,0-5.2-0.5-7.2-1.4c-2-0.9-3.6-2.2-4.7-3.8c-1.1-1.6-1.6-3.5-1.6-5.6c0-1.9,0.5-3.7,1.4-5.2
		c0.9-1.6,2.4-2.8,4.5-3.8c2.1-1,4.9-1.4,8.4-1.4h12.7v3.7h-12.5c-3.6,0-6,0.6-7.4,1.9c-1.4,1.3-2.1,2.8-2.1,4.7
		c0,2.1,0.8,3.8,2.5,5c1.6,1.3,3.9,1.9,6.9,1.9c2.8,0,5.2-0.6,7.3-1.9c2-1.3,3.5-3.1,4.5-5.6l1.1,3.4c-0.9,2.4-2.6,4.4-4.9,5.8
		C316.3,483,313.4,483.7,309.8,483.7z M322.5,483.3v-8.1l-0.2-1.3v-13.6c0-3.1-0.9-5.5-2.6-7.2c-1.8-1.7-4.4-2.5-7.8-2.5
		c-2.4,0-4.7,0.4-6.8,1.2c-2.2,0.8-4,1.8-5.5,3.2l-2.2-3.7c1.9-1.6,4.1-2.8,6.7-3.7c2.6-0.9,5.4-1.3,8.3-1.3c4.8,0,8.4,1.2,11,3.5
		c2.6,2.4,3.9,5.9,3.9,10.8v22.8H322.5z"/>
	<path class="st1" d="M340.8,483.3v-36.8h4.8v10l-0.8-1.8c1.1-2.7,2.9-4.8,5.4-6.3c2.5-1.5,5.5-2.3,8.9-2.3c3.6,0,6.7,0.9,9.2,2.7
		c2.5,1.8,4.2,4.5,4.9,8.1l-2-0.8c1.1-3,3-5.4,5.7-7.3c2.7-1.8,6-2.8,9.8-2.8c3,0,5.6,0.6,7.8,1.7c2.2,1.1,3.9,2.9,5.2,5.2
		c1.2,2.3,1.9,5.3,1.9,8.8v21.4h-5v-20.9c0-3.9-0.9-6.8-2.8-8.8c-1.8-2-4.5-3-7.8-3c-2.5,0-4.7,0.5-6.6,1.6
		c-1.8,1.1-3.3,2.6-4.3,4.6c-1,2-1.5,4.4-1.5,7.2v19.3h-5v-20.9c0-3.9-0.9-6.8-2.8-8.8c-1.9-2-4.5-3-7.8-3c-2.5,0-4.6,0.5-6.5,1.6
		c-1.9,1.1-3.3,2.6-4.3,4.6c-1,2-1.5,4.4-1.5,7.2v19.3H340.8z"/>
	<path class="st1" d="M415.2,496.9v-50.4h4.8v11.1l-0.5,7.4l0.7,7.4v24.5H415.2z M434.2,483.7c-3.2,0-6.1-0.7-8.6-2.2
		c-2.6-1.5-4.6-3.6-6.1-6.4c-1.5-2.8-2.3-6.2-2.3-10.2c0-4,0.7-7.4,2.2-10.2c1.5-2.8,3.5-4.9,6.1-6.3c2.6-1.4,5.5-2.2,8.7-2.2
		c3.5,0,6.6,0.8,9.4,2.3c2.8,1.6,5,3.8,6.6,6.6c1.6,2.8,2.4,6.1,2.4,9.8c0,3.7-0.8,7-2.4,9.8c-1.6,2.8-3.8,5-6.6,6.6
		C440.8,482.9,437.7,483.7,434.2,483.7z M433.8,479.3c2.6,0,5-0.6,7-1.8c2.1-1.2,3.7-2.9,4.9-5c1.2-2.2,1.8-4.7,1.8-7.5
		c0-2.8-0.6-5.3-1.8-7.5c-1.2-2.1-2.9-3.8-4.9-5c-2.1-1.2-4.4-1.8-7-1.8s-5,0.6-7,1.8c-2.1,1.2-3.7,2.9-4.9,5
		c-1.2,2.2-1.8,4.7-1.8,7.5c0,2.9,0.6,5.4,1.8,7.5c1.2,2.2,2.8,3.9,4.9,5C428.9,478.7,431.2,479.3,433.8,479.3z"/>
	<path class="st1" d="M477.9,483.7c-3.1,0-5.9-0.6-8.2-1.8c-2.3-1.2-4.1-2.9-5.4-5.3c-1.3-2.3-1.9-5.3-1.9-8.8v-21.4h5v20.8
		c0,3.9,1,6.9,2.9,8.9c1.9,2,4.7,3,8.2,3c2.6,0,4.8-0.5,6.7-1.6c1.9-1.1,3.3-2.6,4.3-4.6c1-2,1.5-4.4,1.5-7.2v-19.3h5v36.8h-4.8
		v-10.1l0.8,1.8c-1.2,2.7-3,4.8-5.4,6.3C484,482.9,481.2,483.7,477.9,483.7z"/>
	<path class="st1" d="M519.7,483.7c-3,0-5.9-0.4-8.6-1.3c-2.7-0.9-4.8-2-6.4-3.3l2.2-3.9c1.5,1.1,3.4,2.1,5.7,2.9
		c2.3,0.8,4.8,1.2,7.4,1.2c3.5,0,6-0.5,7.6-1.6c1.5-1.1,2.3-2.6,2.3-4.4c0-1.4-0.4-2.4-1.3-3.2c-0.9-0.8-2-1.4-3.4-1.8
		c-1.4-0.4-3-0.7-4.7-1c-1.7-0.3-3.4-0.6-5.2-1c-1.7-0.4-3.3-0.9-4.7-1.6c-1.4-0.7-2.5-1.7-3.4-3c-0.9-1.3-1.3-2.9-1.3-5
		c0-2,0.6-3.8,1.7-5.4c1.1-1.6,2.8-2.8,4.9-3.7c2.2-0.9,4.8-1.4,8-1.4c2.4,0,4.8,0.3,7.1,0.9c2.4,0.6,4.3,1.5,5.9,2.5l-2.2,4
		c-1.6-1.1-3.4-1.9-5.3-2.4c-1.9-0.5-3.7-0.7-5.6-0.7c-3.3,0-5.8,0.6-7.3,1.7c-1.6,1.1-2.3,2.6-2.3,4.4c0,1.4,0.4,2.5,1.3,3.3
		c0.9,0.8,2,1.4,3.4,1.9c1.4,0.4,3,0.8,4.7,1.1c1.7,0.3,3.4,0.6,5.1,1c1.7,0.4,3.3,0.9,4.7,1.6c1.4,0.7,2.6,1.6,3.4,2.9
		c0.9,1.2,1.3,2.9,1.3,4.9c0,2.2-0.6,4-1.8,5.6c-1.2,1.6-2.9,2.8-5.2,3.6C525.7,483.3,522.9,483.7,519.7,483.7z"/>
</g>
</svg>
